<svg xmlns="http://www.w3.org/2000/svg" width="243" height="243" fill="none"><path fill="#001F3F" d="M0 25C0 11.193 11.193 0 25 0h193c13.807 0 25 11.193 25 25v193c0 13.807-11.193 25-25 25H25c-13.807 0-25-11.193-25-25V25Z"/><path fill="#fff" d="M94.907 153h45.3v21h-74.4v-19.5l45-64.8h-45v-21h74.4v19.5l-45.3 64.8Zm85.605-84.3v20.55h-42.9v22.2h32.1v19.95h-32.1V174h-25.65V68.7h68.55Z"/><path fill="#001F3F" d="m94.907 153-1.64-1.146L91.069 155h3.839v-2Zm45.3 0h2v-2h-2v2Zm0 21v2h2v-2h-2Zm-74.4 0h-2v2h2v-2Zm0-19.5-1.643-1.141-.357.515v.626h2Zm45-64.8 1.642 1.14 2.181-3.14h-3.823v2Zm-45 0h-2v2h2v-2Zm0-21v-2h-2v2h2Zm74.4 0h2v-2h-2v2Zm0 19.5 1.639 1.146.361-.516v-.63h-2Zm-45.3 66.8h45.3v-4h-45.3v4Zm43.3-2v21h4v-21h-4Zm2 19h-74.4v4h74.4v-4Zm-72.4 2v-19.5h-4V174h4Zm-.358-18.359 45-64.8-3.285-2.282-45 64.8 3.285 2.282ZM110.807 87.7h-45v4h45v-4Zm-43 2v-21h-4v21h4Zm-2-19h74.4v-4h-74.4v4Zm72.4-2v19.5h4V68.7h-4Zm.36 18.354-45.3 64.8 3.279 2.292 45.3-64.8-3.279-2.292ZM180.512 68.7h2v-2h-2v2Zm0 20.55v2h2v-2h-2Zm-42.9 0v-2h-2v2h2Zm0 22.2h-2v2h2v-2Zm32.1 0h2v-2h-2v2Zm0 19.95v2h2v-2h-2Zm-32.1 0v-2h-2v2h2Zm0 42.6v2h2v-2h-2Zm-25.65 0h-2v2h2v-2Zm0-105.3v-2h-2v2h2Zm66.55 0v20.55h4V68.7h-4Zm2 18.55h-42.9v4h42.9v-4Zm-44.9 2v22.2h4v-22.2h-4Zm2 24.2h32.1v-4h-32.1v4Zm30.1-2v19.95h4v-19.95h-4Zm2 17.95h-32.1v4h32.1v-4Zm-34.1 2V174h4v-42.6h-4Zm2 40.6h-25.65v4h25.65v-4Zm-23.65 2V68.7h-4V174h4Zm-2-103.3h68.55v-4h-68.55v4Z"/></svg>